<?xml version="1.0" encoding="UTF-8" standalone="no"?>
<!-- Created with Inkscape (http://www.inkscape.org/) -->

<svg
   xmlns:dc="http://purl.org/dc/elements/1.1/"
   xmlns:cc="http://creativecommons.org/ns#"
   xmlns:rdf="http://www.w3.org/1999/02/22-rdf-syntax-ns#"
   xmlns:svg="http://www.w3.org/2000/svg"
   xmlns="http://www.w3.org/2000/svg"
   xmlns:sodipodi="http://sodipodi.sourceforge.net/DTD/sodipodi-0.dtd"
   xmlns:inkscape="http://www.inkscape.org/namespaces/inkscape"
   width="92.554398mm"
   height="91.887413mm"
   viewBox="0 0 92.554398 91.887413"
   version="1.1"
   id="svg8"
   inkscape:version="0.92.3 (2405546, 2018-03-11)"
   sodipodi:docname="background_orig.svg">
  <defs
     id="defs2">
    <style
       type="text/css"
       id="style6"><![CDATA[
    .fil0 {fill:#237699}
    .fil1 {fill:white;fill-rule:nonzero}
   ]]></style>
    <style
       type="text/css"
       id="style6-6"><![CDATA[
    .fil0 {fill:#237699}
    .fil1 {fill:white;fill-rule:nonzero}
   ]]></style>
    <style
       id="style6-0"
       type="text/css"><![CDATA[
    .fil0 {fill:#237699}
    .fil1 {fill:white;fill-rule:nonzero}
   ]]></style>
    <style
       id="style6-6-6"
       type="text/css"><![CDATA[
    .fil0 {fill:#237699}
    .fil1 {fill:white;fill-rule:nonzero}
   ]]></style>
    <style
       type="text/css"
       id="style6-62"><![CDATA[
    .str0 {stroke:#FEFEFE;stroke-width:52.92}
    .fil0 {fill:#237699}
    .fil1 {fill:#FEFEFE;fill-rule:nonzero}
   ]]></style>
  </defs>
  <sodipodi:namedview
     id="base"
     pagecolor="#ffffff"
     bordercolor="#666666"
     borderopacity="1.0"
     inkscape:pageopacity="0.0"
     inkscape:pageshadow="2"
     inkscape:zoom="1.6830078"
     inkscape:cx="65.698567"
     inkscape:cy="166.80322"
     inkscape:document-units="mm"
     inkscape:current-layer="layer1"
     showgrid="false"
     fit-margin-top="0"
     fit-margin-left="0"
     fit-margin-right="0"
     fit-margin-bottom="0"
     inkscape:window-width="1920"
     inkscape:window-height="1027"
     inkscape:window-x="-8"
     inkscape:window-y="-8"
     inkscape:window-maximized="1" />
  <metadata
     id="metadata5">
    <rdf:RDF>
      <cc:Work
         rdf:about="">
        <dc:format>image/svg+xml</dc:format>
        <dc:type
           rdf:resource="http://purl.org/dc/dcmitype/StillImage" />
        <dc:title />
      </cc:Work>
    </rdf:RDF>
  </metadata>
  <g
     inkscape:label="Layer 1"
     inkscape:groupmode="layer"
     id="layer1"
     transform="translate(-60.153036,-57.060858)">
    <g
       transform="matrix(0.99320578,0,0,0.99486736,22.975657,15.450564)"
       id="layer1-7"
       inkscape:label="Layer 1"
       style="fill:#088a4b;fill-opacity:1">
      <g
         transform="matrix(0.01,0,0,0.01,12.333043,40.363989)"
         id="g80"
         style="clip-rule:evenodd;fill:#088a4b;fill-opacity:1;fill-rule:evenodd;image-rendering:optimizeQuality;shape-rendering:geometricPrecision;text-rendering:geometricPrecision">
        <g
           id="Слой_x0020_1"
           transform="translate(-6377.73,-2154)"
           style="fill:#088a4b;fill-opacity:1">
          <metadata
             id="CorelCorpID_0Corel-Layer" />
          <g
             id="_1372459504"
             style="fill:#088a4b;fill-opacity:1">
            <path
               style="fill:#088a4b;fill-opacity:1;stroke-width:10.29244614"
               inkscape:connector-curvature="0"
               d="m 11563.663,4300.7178 c 365.115,0 661.103,293.8551 661.103,656.3387 0,362.4835 -295.988,656.3386 -661.103,656.3386 -365.114,0 -661.103,-293.8551 -661.103,-656.3386 0,-362.4836 295.989,-656.3387 661.103,-656.3387 z m 6611.029,5250.7089 c 0,1087.4613 -887.954,1969.0163 -1983.309,1969.0163 h -4627.72 l 1983.308,-1969.0163 h 838.031 c 228.619,392.3477 655.876,656.3383 1145.279,656.3383 730.229,0 1322.205,-587.7095 1322.205,-1312.677 0,-724.9662 -591.976,-1312.6764 -1322.205,-1312.6764 -489.393,0 -916.66,263.9917 -1145.279,656.3382 H 12885.869 L 9870.0412,11232.843 c -570.1903,-345.849 -950.789,-969.495 -950.789,-1681.4163 V 4300.7178 c 0,-1087.461 887.9537,-1969.0162 1983.3078,-1969.0162 v 1488.3301 c -395.195,226.97 -661.102,651.1597 -661.102,1137.0248 0,724.967 591.976,1312.6774 1322.205,1312.6774 488.348,0 914.801,-262.8738 1143.781,-653.8364 l 1677.713,-2.246 c 228.66,392.2035 655.835,656.0824 1145.124,656.0824 730.229,0 1322.205,-587.7104 1322.205,-1312.6774 0,-724.9672 -591.976,-1312.6775 -1322.205,-1312.6775 -489.506,0 -916.847,264.1045 -1145.433,656.5951 l -1674.42,2.2459 c -116.167,-200.3884 -284.097,-367.4266 -485.662,-483.1883 V 2331.7016 h 3966.617 c 1095.355,0 1983.309,881.5552 1983.309,1969.0162 z M 14869.178,8895.088 c 0,-362.4831 295.988,-656.3382 661.103,-656.3382 365.114,0 661.102,293.8551 661.102,656.3382 0,362.4836 -295.988,656.3387 -661.102,656.3387 -365.115,0 -661.103,-293.8551 -661.103,-656.3387 z m 0,-3938.0315 c 0,-362.4836 295.988,-656.3387 661.103,-656.3387 365.114,0 661.102,293.8551 661.102,656.3387 0,362.4835 -295.988,656.3386 -661.102,656.3386 -365.115,0 -661.103,-293.8551 -661.103,-656.3386 z"
               id="path4692" />
          </g>
        </g>
      </g>
    </g>
  </g>
</svg>
